<svg xmlns="http://www.w3.org/2000/svg" viewBox="0 0 720 100"><title>text</title><g id="Layer_2" data-name="Layer 2"><path d="M302.17,74.73H290V31H273.63V20.64h44.92V31H302.17Z"/><path d="M328.36,58.51c.73,5.35,3.89,8.27,8.84,8.27,3.08,0,5.27-1,6.81-3.49h11.68c-2.19,7.63-9.49,12.49-18.82,12.49-12.08,0-20.11-8.27-20.11-20.59s8.19-20.68,20-20.68c8.27,0,14.52,4.14,17.44,11.51,1.37,3.41,1.94,7.06,1.94,12.49Zm16-8.11c-.48-4.62-3.16-7.13-7.62-7.13s-7.38,2.51-8.27,7.13Z"/><path d="M399.23,74.73H385.85l-7.38-11.19-7.21,11.19H358.12l14-20.52L359.34,35.56h12.81l6.4,9.9,6.17-9.9h12.81L384.8,54.21Z"/><path d="M424,44.16H417V59.4c0,6.17.24,6.65,2.92,6.65H424v8.68H417c-5,0-7.54-.73-9.25-2.6s-2.27-4-2.27-10.13V44.16H400V36.05h5.51V23.64H417V36.05H424Z"/></g></svg>