<svg id="Layer_1" data-name="Layer 1" xmlns="http://www.w3.org/2000/svg" viewBox="0 0 720 351"><defs><style>.cls-1,.cls-3{font-size:49.98px;}.cls-1{font-family:NimbusSan-Lig, Nimbus Sans;}.cls-2,.cls-5{fill:none;stroke:#000;stroke-miterlimit:10;}.cls-2{stroke-width:0.94px;}.cls-3{font-family:NimbusSan-Bol, Nimbus Sans;font-weight:700;}.cls-4{letter-spacing:0.01em;}.cls-5{stroke-width:1.61px;}</style></defs><title>number_diagram</title><text class="cls-1" transform="translate(235.91 155.7)">128 64 32 16 8 4 2 1</text><polyline class="cls-2" points="520.09 245.02 520.09 255.39 549.79 255.39 549.79 245.02"/><polyline class="cls-2" points="612.49 245.02 612.49 255.39 642.19 255.39 642.19 245.02"/><polyline class="cls-2" points="678.49 245.02 678.49 255.39 708.19 255.39 708.19 245.02"/><text class="cls-1" transform="translate(679.26 324.19)">1</text><text class="cls-1" transform="translate(596.11 324.19)">10</text><text class="cls-1" transform="translate(488.92 324.19)">100</text><text class="cls-1" transform="translate(519.96 235.37)">1</text><polyline class="cls-2" points="265.98 71.77 265.98 82.14 295.68 82.14 295.68 71.77"/><text class="cls-1" transform="translate(265.84 62.13)">0</text><polyline class="cls-2" points="346.59 71.77 346.59 82.14 376.29 82.14 376.29 71.77"/><text class="cls-1" transform="translate(346.46 62.13)">1</text><polyline class="cls-2" points="419.2 71.77 419.2 82.14 448.9 82.14 448.9 71.77"/><text class="cls-1" transform="translate(419.07 62.13)">0</text><polyline class="cls-2" points="494.16 71.77 494.16 82.14 523.86 82.14 523.86 71.77"/><text class="cls-1" transform="translate(494.03 62.13)">1</text><polyline class="cls-2" points="546.49 71.3 546.49 81.67 576.19 81.67 576.19 71.3"/><text class="cls-1" transform="translate(546.36 61.66)">0</text><polyline class="cls-2" points="592.22 71.3 592.22 81.67 621.92 81.67 621.92 71.3"/><text class="cls-1" transform="translate(592.09 61.66)">0</text><polyline class="cls-2" points="633.23 71.3 633.23 81.67 662.93 81.67 662.93 71.3"/><text class="cls-1" transform="translate(633.1 61.66)">1</text><polyline class="cls-2" points="674.25 71.3 674.25 81.67 703.95 81.67 703.95 71.3"/><text class="cls-1" transform="translate(674.12 61.66)">1</text><text class="cls-1" transform="translate(614 235.61)">1</text><text class="cls-1" transform="translate(679.3 235.12)">9</text><text class="cls-3" transform="translate(248.97 288.83)">B<tspan class="cls-4" x="32.54" y="0">a</tspan><tspan x="60.57" y="0">se 10</tspan></text><text class="cls-3" transform="translate(19.77 115.97)">B<tspan class="cls-4" x="32.54" y="0">a</tspan><tspan x="60.57" y="0">se 2</tspan></text><line class="cls-5" x1="479.05" y1="272.54" x2="709" y2="272.54"/><line class="cls-5" x1="232.96" y1="99.88" x2="709" y2="99.88"/></svg>