<?xml version="1.0" encoding="utf-8"?>
<!-- Generator: Adobe Illustrator 23.0.0, SVG Export Plug-In . SVG Version: 6.00 Build 0)  -->
<svg version="1.1" id="Layer_1" xmlns="http://www.w3.org/2000/svg" xmlns:xlink="http://www.w3.org/1999/xlink" x="0px" y="0px"
	 viewBox="0 0 720 351" style="enable-background:new 0 0 720 351;" xml:space="preserve">
<style type="text/css">
	.st0{enable-background:new    ;}
</style>
<title>number_diagram</title>
<g class="st0">
	<path d="M23,151.1h-3.4v-26.3h-8.2v-2.3c5.8-0.1,8.5-1.9,9-6.6H23V151.1z"/>
	<path d="M59.9,151.1H37.6c-0.1-0.5-0.1-0.9-0.1-1.1c0-2.8,0.8-5.6,2.4-7.7c1.6-2.3,3.6-3.8,8.8-6.9c6-3.5,7.6-5.5,7.6-9.6
		c0-4.4-2.6-7-7-7c-4.9,0-7.4,2.8-7.4,8.5h-3.6c0.1-7.4,4.2-11.8,11.2-11.8c6.3,0,10.5,3.9,10.5,10c0,2.8-0.9,5.3-2.8,7.4
		c-1.4,1.5-3.2,2.8-6.5,4.8c-7.1,4.1-8.9,6-9.6,10.3h18.8V151.1z"/>
	<path d="M90,141.3c0,6.2-4.7,10.4-11.7,10.4c-7,0-11.7-4.3-11.7-10.5c0-4.4,2.1-7.4,6.3-9.2c-3.3-1.7-4.8-3.9-4.8-7.3
		c0-5.4,4.3-9.2,10.3-9.2c6,0,10.3,3.8,10.3,9.2c0,3.4-1.5,5.6-4.8,7.3C87.9,133.9,90,136.9,90,141.3z M70.1,141.2
		c0,4.4,3.5,7.6,8.2,7.6c4.7,0,8.2-3.2,8.2-7.5c0-4.5-3.4-7.6-8.2-7.6C73.6,133.7,70.1,136.9,70.1,141.2z M71.3,124.8
		c0,3.5,2.9,6.2,7,6.2c3.9,0,7-2.6,7-6.1c0-3.6-2.9-6.2-7-6.2C74.3,118.6,71.3,121.2,71.3,124.8z"/>
	<path d="M131.1,124.6c-0.5-3.8-2.8-6-6.5-6c-3.3,0-5.9,1.8-7.4,5.2c-1.2,2.7-1.9,6.1-1.9,9.4v1.1c2.3-3.7,5.2-5.5,9.3-5.5
		c6.3,0,10.6,4.6,10.6,11.2c0,6.8-4.6,11.7-11.3,11.7c-3.5,0-6.6-1.5-8.6-4.1c-2.3-2.9-3.4-7.2-3.4-12.9c0-12.2,4.6-19.2,12.7-19.2
		c5.5,0,9.3,3.5,9.9,9H131.1z M116.3,140.2c0,5,3.2,8.5,7.8,8.5c4.5,0,7.4-3.4,7.4-8.5c0-5.1-2.9-8.4-7.5-8.4
		C119.6,131.9,116.3,135.4,116.3,140.2z"/>
	<path d="M141.4,142.4v-2.8l15.8-23.3h2.9v23.3h4.9v2.8h-4.9v8.7h-3.3v-8.7H141.4z M156.8,131.9c0-4.1,0.1-7.5,0.2-10.6
		c-1.8,2.7-3.7,5.6-5.3,8.1l-6.8,10.2h12V131.9z"/>
	<path d="M195.9,131.3c0.7,0.1,1.1,0.1,1.7,0.1c2.8,0,4.4-0.5,5.8-1.7c1.3-1.2,2.1-2.9,2.1-4.8c0-3.7-2.8-6.2-7-6.2
		c-4.6,0-7.3,2.8-7.3,7.6v0.4h-3.4c0.1-6.8,4.1-11,10.6-11c6.1,0,10.3,3.8,10.3,9.2c0,3.4-1.5,5.7-4.9,7.6c4.2,1.6,6.1,4.3,6.1,8.5
		c0,6.4-4.8,10.8-11.6,10.8c-4.1,0-7.4-1.6-9.5-4.4c-1.4-1.9-1.9-3.8-1.9-6.7h3.5c0.1,5.1,3.1,8.1,8.1,8.1c4.6,0,7.9-3.1,7.9-7.5
		c0-4.7-3.1-7.3-8.6-7.3c-0.5,0-0.8,0-1.9,0.1V131.3z"/>
	<path d="M239,151.1h-22.3c-0.1-0.5-0.1-0.9-0.1-1.1c0-2.8,0.8-5.6,2.4-7.7c1.6-2.3,3.6-3.8,8.8-6.9c6-3.5,7.6-5.5,7.6-9.6
		c0-4.4-2.6-7-7-7c-4.9,0-7.4,2.8-7.4,8.5h-3.6c0.1-7.4,4.2-11.8,11.2-11.8c6.3,0,10.5,3.9,10.5,10c0,2.8-0.9,5.3-2.8,7.4
		c-1.4,1.5-3.2,2.8-6.5,4.8c-7.1,4.1-8.9,6-9.6,10.3H239V151.1z"/>
	<path d="M276.9,151.1h-3.4v-26.3h-8.2v-2.3c5.8-0.1,8.5-1.9,9-6.6h2.6V151.1z"/>
	<path d="M310.1,124.6c-0.5-3.8-2.8-6-6.5-6c-3.3,0-5.9,1.8-7.4,5.2c-1.2,2.7-1.9,6.1-1.9,9.4v1.1c2.3-3.7,5.2-5.5,9.3-5.5
		c6.3,0,10.6,4.6,10.6,11.2c0,6.8-4.6,11.7-11.3,11.7c-3.5,0-6.6-1.5-8.6-4.1c-2.3-2.9-3.4-7.2-3.4-12.9c0-12.2,4.6-19.2,12.7-19.2
		c5.5,0,9.3,3.5,9.9,9H310.1z M295.4,140.2c0,5,3.2,8.5,7.8,8.5c4.5,0,7.4-3.4,7.4-8.5c0-5.1-2.9-8.4-7.5-8.4
		C298.7,131.9,295.4,135.4,295.4,140.2z"/>
	<path d="M359.6,141.3c0,6.2-4.7,10.4-11.7,10.4c-7,0-11.7-4.3-11.7-10.5c0-4.4,2.1-7.4,6.3-9.2c-3.3-1.7-4.8-3.9-4.8-7.3
		c0-5.4,4.3-9.2,10.3-9.2c6,0,10.3,3.8,10.3,9.2c0,3.4-1.5,5.6-4.8,7.3C357.5,133.9,359.6,136.9,359.6,141.3z M339.8,141.2
		c0,4.4,3.5,7.6,8.2,7.6c4.7,0,8.2-3.2,8.2-7.5c0-4.5-3.4-7.6-8.2-7.6C343.2,133.7,339.8,136.9,339.8,141.2z M341,124.8
		c0,3.5,2.9,6.2,7,6.2c3.9,0,7-2.6,7-6.1c0-3.6-2.9-6.2-7-6.2C344,118.6,341,121.2,341,124.8z"/>
	<path d="M381.6,142.4v-2.8l15.8-23.3h2.9v23.3h4.9v2.8h-4.9v8.7H397v-8.7H381.6z M397,131.9c0-4.1,0.1-7.5,0.2-10.6
		c-1.8,2.7-3.7,5.6-5.3,8.1l-6.8,10.2h12V131.9z"/>
	<path d="M449.7,151.1h-22.3c-0.1-0.5-0.1-0.9-0.1-1.1c0-2.8,0.8-5.6,2.4-7.7c1.6-2.3,3.6-3.8,8.8-6.9c6-3.5,7.6-5.5,7.6-9.6
		c0-4.4-2.6-7-7-7c-4.9,0-7.4,2.8-7.4,8.5h-3.6c0.1-7.4,4.2-11.8,11.2-11.8c6.3,0,10.5,3.9,10.5,10c0,2.8-0.9,5.3-2.8,7.4
		c-1.4,1.5-3.2,2.8-6.5,4.8c-7.1,4.1-8.9,6-9.6,10.3h18.8V151.1z"/>
	<path d="M487.5,151.1h-3.4v-26.3h-8.2v-2.3c5.8-0.1,8.5-1.9,9-6.6h2.6V151.1z"/>
</g>
<g>
	<polygon points="335.8,256.6 303.5,256.6 303.5,245.2 304.5,245.2 304.5,255.6 334.8,255.6 334.8,245.2 335.8,245.2 	"/>
</g>
<g>
	<polygon points="433.2,256.6 400.9,256.6 400.9,245.2 401.9,245.2 401.9,255.6 432.2,255.6 432.2,245.2 433.2,245.2 	"/>
</g>
<g>
	<polygon points="502.7,256.6 470.5,256.6 470.5,245.2 471.4,245.2 471.4,255.6 501.8,255.6 501.8,245.2 502.7,245.2 	"/>
</g>
<g class="st0">
	<path d="M490.2,328.6h-3.4v-26.3h-8.2v-2.3c5.8-0.1,8.5-1.9,9-6.6h2.6V328.6z"/>
</g>
<g class="st0">
	<path d="M402.6,328.6h-3.4v-26.3H391v-2.3c5.8-0.1,8.5-1.9,9-6.6h2.6V328.6z"/>
	<path d="M437.6,298.5c1.7,3.2,2.3,6.8,2.3,13c0,5.6-0.7,9.4-2.3,12.5c-1.8,3.4-5.2,5.4-9.2,5.4c-3.9,0-7.4-2-9.2-5.4
		c-1.6-3.2-2.3-6.9-2.3-12.7c0-5.8,0.7-9.7,2.3-12.7c1.8-3.4,5.2-5.4,9.2-5.4C432.4,293.2,435.8,295.1,437.6,298.5z M422.2,300.1
		c-1.2,2.6-1.8,6.1-1.8,11.2c0,5.1,0.6,8.6,1.8,11.2c1.2,2.4,3.5,3.9,6.2,3.9c5.4,0,8-4.8,8-14.9c0-5.3-0.6-8.8-1.8-11.4
		c-1.2-2.4-3.5-3.9-6.2-3.9C425.7,296.2,423.4,297.6,422.2,300.1z"/>
</g>
<g class="st0">
	<path d="M289.6,328.6h-3.4v-26.3H278v-2.3c5.8-0.1,8.5-1.9,9-6.6h2.6V328.6z"/>
	<path d="M324.6,298.5c1.7,3.2,2.3,6.8,2.3,13c0,5.6-0.7,9.4-2.3,12.5c-1.8,3.4-5.2,5.4-9.2,5.4c-3.9,0-7.4-2-9.2-5.4
		c-1.6-3.2-2.3-6.9-2.3-12.7c0-5.8,0.7-9.7,2.3-12.7c1.8-3.4,5.2-5.4,9.2-5.4C319.5,293.2,322.8,295.1,324.6,298.5z M309.3,300.1
		c-1.2,2.6-1.8,6.1-1.8,11.2c0,5.1,0.6,8.6,1.8,11.2c1.2,2.4,3.5,3.9,6.2,3.9c5.4,0,8-4.8,8-14.9c0-5.3-0.6-8.8-1.8-11.4
		c-1.2-2.4-3.5-3.9-6.2-3.9C312.8,296.2,310.4,297.6,309.3,300.1z"/>
	<path d="M354.1,298.5c1.7,3.2,2.3,6.8,2.3,13c0,5.6-0.7,9.4-2.3,12.5c-1.8,3.4-5.2,5.4-9.2,5.4c-3.9,0-7.4-2-9.2-5.4
		c-1.6-3.2-2.3-6.9-2.3-12.7c0-5.8,0.7-9.7,2.3-12.7c1.8-3.4,5.2-5.4,9.2-5.4C349,293.2,352.3,295.1,354.1,298.5z M338.8,300.1
		c-1.2,2.6-1.8,6.1-1.8,11.2c0,5.1,0.6,8.6,1.8,11.2c1.2,2.4,3.5,3.9,6.2,3.9c5.4,0,8-4.8,8-14.9c0-5.3-0.6-8.8-1.8-11.4
		c-1.2-2.4-3.5-3.9-6.2-3.9C342.3,296.2,339.9,297.6,338.8,300.1z"/>
</g>
<g class="st0">
	<path d="M322.3,235h-3.4v-26.3h-8.2v-2.3c5.8-0.1,8.5-1.9,9-6.6h2.6V235z"/>
</g>
<g>
	<polygon points="68,74.1 35.8,74.1 35.8,62.6 36.7,62.6 36.7,73.1 67.1,73.1 67.1,62.6 68,62.6 	"/>
</g>
<g class="st0">
	<path d="M60.1,22.4c1.7,3.2,2.3,6.8,2.3,13c0,5.6-0.7,9.4-2.3,12.5c-1.8,3.4-5.2,5.4-9.2,5.4c-3.9,0-7.4-2-9.2-5.4
		c-1.6-3.2-2.3-6.9-2.3-12.7c0-5.8,0.7-9.7,2.3-12.7c1.8-3.4,5.2-5.4,9.2-5.4C54.9,17,58.3,18.9,60.1,22.4z M44.7,23.9
		c-1.2,2.6-1.8,6.1-1.8,11.2c0,5.1,0.6,8.6,1.8,11.2c1.2,2.4,3.5,3.9,6.2,3.9c5.4,0,8-4.8,8-14.9c0-5.3-0.6-8.8-1.8-11.4
		c-1.2-2.4-3.5-3.9-6.2-3.9C48.2,20,45.8,21.5,44.7,23.9z"/>
</g>
<g>
	<polygon points="153,74.1 120.7,74.1 120.7,62.6 121.7,62.6 121.7,73.1 152,73.1 152,62.6 153,62.6 	"/>
</g>
<g class="st0">
	<path d="M139.5,52.5h-3.4V26.2h-8.2v-2.3c5.8-0.1,8.5-1.9,9-6.6h2.6V52.5z"/>
</g>
<g>
	<polygon points="229.5,74.1 197.2,74.1 197.2,62.6 198.2,62.6 198.2,73.1 228.5,73.1 228.5,62.6 229.5,62.6 	"/>
</g>
<g class="st0">
	<path d="M221.5,22.4c1.7,3.2,2.3,6.8,2.3,13c0,5.6-0.7,9.4-2.3,12.5c-1.8,3.4-5.2,5.4-9.2,5.4c-3.9,0-7.4-2-9.2-5.4
		c-1.6-3.2-2.3-6.9-2.3-12.7c0-5.8,0.7-9.7,2.3-12.7c1.8-3.4,5.2-5.4,9.2-5.4C216.4,17,219.7,18.9,221.5,22.4z M206.2,23.9
		c-1.2,2.6-1.8,6.1-1.8,11.2c0,5.1,0.6,8.6,1.8,11.2c1.2,2.4,3.5,3.9,6.2,3.9c5.4,0,8-4.8,8-14.9c0-5.3-0.6-8.8-1.8-11.4
		c-1.2-2.4-3.5-3.9-6.2-3.9C209.7,20,207.3,21.5,206.2,23.9z"/>
</g>
<g>
	<polygon points="308.5,74.1 276.2,74.1 276.2,62.6 277.2,62.6 277.2,73.1 307.5,73.1 307.5,62.6 308.5,62.6 	"/>
</g>
<g class="st0">
	<path d="M295,52.5h-3.4V26.2h-8.2v-2.3c5.8-0.1,8.5-1.9,9-6.6h2.6V52.5z"/>
</g>
<g>
	<polygon points="363.6,73.6 331.4,73.6 331.4,62.2 332.3,62.2 332.3,72.6 362.7,72.6 362.7,62.2 363.6,62.2 	"/>
</g>
<g class="st0">
	<path d="M355.7,21.9c1.7,3.2,2.3,6.8,2.3,13c0,5.6-0.7,9.4-2.3,12.5c-1.8,3.4-5.2,5.4-9.2,5.4c-3.9,0-7.4-2-9.2-5.4
		c-1.6-3.2-2.3-6.9-2.3-12.7c0-5.8,0.7-9.7,2.3-12.7c1.8-3.4,5.2-5.4,9.2-5.4C350.5,16.5,353.9,18.4,355.7,21.9z M340.3,23.4
		c-1.2,2.6-1.8,6.1-1.8,11.2c0,5.1,0.6,8.6,1.8,11.2c1.2,2.4,3.5,3.9,6.2,3.9c5.4,0,8-4.8,8-14.9c0-5.3-0.6-8.8-1.8-11.4
		c-1.2-2.4-3.5-3.9-6.2-3.9C343.8,19.5,341.5,21,340.3,23.4z"/>
</g>
<g>
	<polygon points="411.8,73.6 379.5,73.6 379.5,62.2 380.5,62.2 380.5,72.6 410.8,72.6 410.8,62.2 411.8,62.2 	"/>
</g>
<g class="st0">
	<path d="M403.9,21.9c1.7,3.2,2.3,6.8,2.3,13c0,5.6-0.7,9.4-2.3,12.5c-1.8,3.4-5.2,5.4-9.2,5.4c-3.9,0-7.4-2-9.2-5.4
		c-1.6-3.2-2.3-6.9-2.3-12.7c0-5.8,0.7-9.7,2.3-12.7c1.8-3.4,5.2-5.4,9.2-5.4C398.7,16.5,402.1,18.4,403.9,21.9z M388.5,23.4
		c-1.2,2.6-1.8,6.1-1.8,11.2c0,5.1,0.6,8.6,1.8,11.2c1.2,2.4,3.5,3.9,6.2,3.9c5.4,0,8-4.8,8-14.9c0-5.3-0.6-8.8-1.8-11.4
		c-1.2-2.4-3.5-3.9-6.2-3.9C392,19.5,389.6,21,388.5,23.4z"/>
</g>
<g>
	<polygon points="455,73.6 422.8,73.6 422.8,62.2 423.8,62.2 423.8,72.6 454.1,72.6 454.1,62.2 455,62.2 	"/>
</g>
<g class="st0">
	<path d="M441.5,52h-3.4V25.7H430v-2.3c5.8-0.1,8.5-1.9,9-6.6h2.6V52z"/>
</g>
<g>
	<polygon points="498.3,73.6 466,73.6 466,62.2 467,62.2 467,72.6 497.3,72.6 497.3,62.2 498.3,62.2 	"/>
</g>
<g class="st0">
	<path d="M484.8,52h-3.4V25.7h-8.2v-2.3c5.8-0.1,8.5-1.9,9-6.6h2.6V52z"/>
</g>
<g class="st0">
	<path d="M421.4,235.3H418V209h-8.2v-2.3c5.8-0.1,8.5-1.9,9-6.6h2.6V235.3z"/>
</g>
<g class="st0">
	<path d="M479,226.5c0.5,3.8,2.8,6,6.5,6c3.3,0,5.9-1.8,7.4-5.2c1.2-2.7,1.9-6.1,1.9-9.4v-1.1c-2.3,3.7-5.3,5.5-9.3,5.5
		c-6.3,0-10.6-4.6-10.6-11.3c0-6.8,4.6-11.7,11.3-11.7c3.5,0,6.6,1.4,8.6,4.1c2.3,3,3.4,7.2,3.4,12.9c0,12.2-4.6,19.2-12.7,19.2
		c-5.5,0-9.3-3.5-9.9-9H479z M478.6,210.8c0,5.1,2.9,8.5,7.5,8.5c4.4,0,7.7-3.6,7.7-8.4c0-5.1-3.2-8.6-7.8-8.6
		C481.5,202.3,478.6,205.7,478.6,210.8z"/>
</g>
<g class="st0">
	<path d="M531.3,256.3h14.3c4.4,0,7,0.5,9.2,1.8c2.5,1.5,4,4.2,4,7.2c0,3.4-1.6,5.7-4.9,7.4c4.1,1.9,5.8,4.5,5.8,8.6
		c0,3.3-1.3,6.2-3.6,7.9c-2.3,1.7-4.7,2.3-9.7,2.3h-15V256.3z M546.6,269.9c2.8,0,4.3-1.2,4.3-3.5c0-2.3-1.5-3.4-4.3-3.4H539v6.9
		H546.6z M546.5,284.6c3.3,0,5.1-1.5,5.1-4.3c0-2.8-1.8-4.3-5.1-4.3H539v8.5H546.5z"/>
</g>
<g class="st0">
	<path d="M565.2,274c0.5-5.8,4.1-8.7,11.3-8.7c3.8,0,6.8,0.9,8.8,2.6c1.8,1.6,2.5,3.7,2.5,7.4V287c0,2.7,0.1,3.1,0.9,4.4h-7.6
		c-0.3-0.9-0.3-1.1-0.6-2c-2.5,2.1-4.3,2.7-7.3,2.7c-5.6,0-9.4-3.2-9.4-8c0-4.8,3-7.3,10.1-8.4l4.1-0.7c1.7-0.3,2.3-0.7,2.3-1.7
		c0-1.4-1.5-2.3-3.9-2.3c-2.7,0-4.2,0.9-4.5,3H565.2z M580.5,279.3c-0.8,0.3-1.5,0.5-2.7,0.8l-2.7,0.6c-2.7,0.6-3.8,1.5-3.8,3.1
		c0,1.7,1.4,2.7,3.8,2.7c2.5,0,4.3-1.1,5.5-3.2V279.3z"/>
</g>
<g class="st0">
	<path d="M608.6,273.6c-0.3-1.9-1.8-2.9-4.3-2.9c-2.2,0-3.6,0.8-3.6,2.1c0,0.9,0.7,1.4,3.1,1.9l4.7,1c3.1,0.6,4.7,1.3,5.8,2.5
		c1.2,1.2,1.9,3.1,1.9,5.1c0,5.4-4.4,8.7-11.4,8.7c-7.1,0-11.4-3.3-11.8-9h7c0.4,2.4,2,3.5,5,3.5c2.4,0,3.9-0.9,3.9-2.5
		c0-1.2-0.8-1.8-2.8-2.3l-4.6-1.1c-5.6-1.2-7.7-3.3-7.7-7.3c0-5.1,4.1-8.2,10.8-8.2c6.5,0,10.5,2.9,11.2,8.3H608.6z"/>
	<path d="M627.5,280.9c0.5,3.5,2.5,5.4,5.7,5.4c2,0,3.4-0.7,4.4-2.3h7.6c-1.4,4.9-6.2,8.1-12.2,8.1c-7.8,0-13.1-5.4-13.1-13.4
		c0-8,5.3-13.4,13-13.4c5.4,0,9.4,2.7,11.3,7.5c0.9,2.2,1.3,4.6,1.3,8.1H627.5z M637.8,275.6c-0.3-3-2.1-4.6-4.9-4.6
		c-2.9,0-4.8,1.6-5.4,4.6H637.8z"/>
	<path d="M684.9,291.4h-7.5v-24.1h-9.3v-4.8c7-0.1,9-1.2,10.3-5.8h6.5V291.4z"/>
	<path d="M717.5,261.8c1.8,3.2,2.5,6.8,2.5,12.4c0,5.1-0.8,8.8-2.5,11.9c-2,3.7-5.7,6-10,6c-4.2,0-7.9-2.2-9.9-6
		c-1.7-3.2-2.5-6.7-2.5-12.1c0-5.4,0.7-9.2,2.5-12.2c2.1-3.7,5.7-5.9,9.9-5.9C711.8,255.9,715.5,258,717.5,261.8z M702.4,274
		c0,7.8,1.8,11.8,5.2,11.8c3.4,0,5.2-4,5.2-11.6c0-7.9-1.7-11.9-5.2-11.9C704.2,262.2,702.4,266.2,702.4,274z"/>
</g>
<g class="st0">
	<path d="M531.3,74.1h14.3c4.4,0,7,0.5,9.2,1.8c2.5,1.5,4,4.2,4,7.2c0,3.4-1.6,5.7-4.9,7.4c4.1,1.9,5.8,4.5,5.8,8.6
		c0,3.3-1.3,6.2-3.6,7.9c-2.3,1.7-4.7,2.3-9.7,2.3h-15V74.1z M546.6,87.7c2.8,0,4.3-1.2,4.3-3.5c0-2.3-1.5-3.4-4.3-3.4H539v6.9
		H546.6z M546.5,102.5c3.3,0,5.1-1.5,5.1-4.3s-1.8-4.3-5.1-4.3H539v8.5H546.5z"/>
</g>
<g class="st0">
	<path d="M565.2,91.8c0.5-5.8,4.1-8.7,11.3-8.7c3.8,0,6.8,0.9,8.8,2.6c1.8,1.6,2.5,3.7,2.5,7.4v11.7c0,2.7,0.1,3.1,0.9,4.4h-7.6
		c-0.3-0.9-0.3-1.1-0.6-2c-2.5,2.1-4.3,2.7-7.3,2.7c-5.6,0-9.4-3.2-9.4-8c0-4.8,3-7.3,10.1-8.4l4.1-0.7c1.7-0.3,2.3-0.7,2.3-1.7
		c0-1.4-1.5-2.3-3.9-2.3c-2.7,0-4.2,0.9-4.5,3H565.2z M580.5,97.1c-0.8,0.3-1.5,0.5-2.7,0.8l-2.7,0.6c-2.7,0.6-3.8,1.5-3.8,3.1
		c0,1.7,1.4,2.7,3.8,2.7c2.5,0,4.3-1.1,5.5-3.2V97.1z"/>
</g>
<g class="st0">
	<path d="M608.6,91.4c-0.3-1.9-1.8-2.9-4.3-2.9c-2.2,0-3.6,0.8-3.6,2.1c0,0.9,0.7,1.4,3.1,1.9l4.7,1c3.1,0.6,4.7,1.3,5.8,2.5
		c1.2,1.2,1.9,3.1,1.9,5.1c0,5.4-4.4,8.7-11.4,8.7c-7.1,0-11.4-3.3-11.8-9h7c0.4,2.4,2,3.5,5,3.5c2.4,0,3.9-0.9,3.9-2.5
		c0-1.2-0.8-1.8-2.8-2.3l-4.6-1.1c-5.6-1.2-7.7-3.3-7.7-7.3c0-5.1,4.1-8.2,10.8-8.2c6.5,0,10.5,2.9,11.2,8.3H608.6z"/>
	<path d="M627.5,98.7c0.5,3.5,2.5,5.4,5.7,5.4c2,0,3.4-0.7,4.4-2.3h7.6c-1.4,4.9-6.2,8.1-12.2,8.1c-7.8,0-13.1-5.4-13.1-13.4
		c0-8,5.3-13.4,13-13.4c5.4,0,9.4,2.7,11.3,7.5c0.9,2.2,1.3,4.6,1.3,8.1H627.5z M637.8,93.4c-0.3-3-2.1-4.6-4.9-4.6
		c-2.9,0-4.8,1.6-5.4,4.6H637.8z"/>
	<path d="M690.6,109.2h-25.1c0.8-6.9,2.9-9.7,12.4-17c3.5-2.7,4.9-5,4.9-7.5c0-2.7-1.9-4.6-4.7-4.6c-1.9,0-3.5,0.9-4.3,2.6
		c-0.4,0.9-0.6,1.9-0.7,4h-7c0.1-3.6,0.7-6,2-8c2.2-3.4,5.6-5.1,10.3-5.1c7.3,0,12.2,4.6,12.2,11.2c0,3.3-1.2,6-4,8.7
		c-1.3,1.3-2.3,2-7.1,5.5c-2.6,1.8-3.5,2.6-4.3,3.8h15.4V109.2z"/>
</g>
<g>
	<rect x="260.8" y="273.4" width="242.3" height="1.7"/>
</g>
<g>
	<rect x="1.5" y="91.4" width="501.6" height="1.7"/>
</g>
</svg>
