<svg xmlns="http://www.w3.org/2000/svg" viewBox="0 0 720 100"><title>ascii</title><g id="Layer_2" data-name="Layer 2"><path d="M271.17,63.86l-3.41,10.87H254.55l18.89-54.09H288.6l17.19,54.09H292l-2.92-10.87Zm9.57-31.13-6.57,21.16h12.24Z"/><path d="M341.31,37.59V36.7c0-4.54-3.57-7.14-9.73-7.14-5.76,0-9.25,2.11-9.25,5.52,0,2.27,1.63,3.81,4.95,4.62l11,2.51c6,1.46,9.32,2.92,11.92,5.35,2.75,2.52,4.13,6,4.13,10.3,0,11.19-8.59,18.08-22.62,18.08-14.6,0-23-7-23.11-19h12.16c.25,6.16,3.73,8.92,11.11,8.92,6.24,0,10.06-2.27,10.06-6.08,0-2.68-1.95-4.54-5.84-5.52l-9.81-2.43c-5.76-1.38-9.33-2.92-11.76-5-2.76-2.27-4.3-6.24-4.3-10.62,0-10.46,8-16.7,21.73-16.7,8.76,0,14.92,2.59,18.41,7.7,1.78,2.68,2.67,5.6,3.16,10.46Z"/><path d="M398.15,37.92c-1.22-5.19-5.19-8.19-10.95-8.19-8.92,0-14,6.56-14,17.92s5.11,18,13.71,18c6.24,0,10-3.08,11.43-9.57H411.2c-1.46,12.24-10.62,19.86-24,19.86-16,0-26.19-11-26.19-28.29s10.06-28.22,26.11-28.22c13.05,0,22,7,23.43,18.49Z"/><path d="M431.31,74.73H419.15V20.64h12.16Z"/><path d="M454.91,74.73H442.74V20.64h12.17Z"/></g></svg>