<svg xmlns="http://www.w3.org/2000/svg" viewBox="0 0 720 100"><defs><style>.cls-1{fill:#74d33e;}</style></defs><title>binary</title><g id="Layer_2" data-name="Layer 2"><path class="cls-1" d="M244,20.64h22c6.81,0,10.71.73,14.19,2.76a12.83,12.83,0,0,1,6.16,11c0,5.19-2.43,8.84-7.62,11.35,6.25,3,8.92,7,8.92,13.22,0,5.11-2,9.48-5.59,12.16s-7.3,3.57-15,3.57H244Zm23.51,21c4.38,0,6.65-1.79,6.65-5.36S271.84,31,267.46,31H255.87V41.65Zm-.16,22.7c5.11,0,7.87-2.27,7.87-6.57s-2.76-6.57-7.87-6.57H255.87V64.35Z"/><path class="cls-1" d="M307.6,30.13H296.08V20.64H307.6Zm0,44.6H296.08V35.56H307.6Z"/><path class="cls-1" d="M328.92,35.56v3.82c4.22-3.9,6.65-5,10.71-5,8.51,0,13.7,5.67,13.7,14.92V74.73H341.82V53.4c0-4-.25-5.51-1.22-7a5.44,5.44,0,0,0-4.7-2.27A6.49,6.49,0,0,0,331,46.27c-1.29,1.46-1.7,3.08-1.7,6.48v22H317.74V35.56Z"/><path class="cls-1" d="M363.55,47.89c.73-9,6.32-13.38,17.35-13.38,5.92,0,10.46,1.38,13.54,4.05,2.84,2.52,3.89,5.68,3.89,11.44V68c0,4.21.17,4.78,1.46,6.73H388c-.49-1.38-.49-1.62-.9-3.08-3.81,3.16-6.56,4.13-11.18,4.13-8.68,0-14.44-4.86-14.44-12.24s4.62-11.19,15.57-13l6.24-1.05c2.6-.4,3.49-1,3.49-2.68,0-2.18-2.27-3.56-6-3.56-4.22,0-6.49,1.46-7,4.62Zm23.59,8.19a22.71,22.71,0,0,1-4.21,1.21l-4.14.9c-4.13,1-5.92,2.35-5.92,4.7,0,2.59,2.19,4.14,5.84,4.14a9,9,0,0,0,8.43-5Z"/><path class="cls-1" d="M419.82,35.56l-.32,7c2.27-6.33,5.19-8.11,13.54-8V45.38a19.35,19.35,0,0,0-2.92-.17c-4,0-7.22,1.79-8.51,4.71-1.14,2.59-1.54,6.24-1.54,13.78v11H408.55V35.56Z"/><path class="cls-1" d="M476.34,35.56,462.72,75.05c-2.19,6.41-3.49,8.68-5.52,10.14-1.86,1.38-4.46,1.94-8.75,1.94h-6.74V78.46h3.41c4.05,0,5.92-1.54,5.92-4.95,0-1.38-.08-1.62-1.46-5L436.69,35.56H449l5.76,17.92c1.13,3.65,1.13,3.73,2,7l.48,1.54c.49-2.6,1.14-5.27,2-8.76l5.11-17.68Z"/></g></svg>